<svg width="28" height="28" viewBox="0 0 22 22" aria-hidden="true" xmlns="http://www.w3.org/2000/svg" fill="none"><path fill-rule="evenodd" clip-rule="evenodd" d="M21.5056 6.9046L20.1482 1.78459C20.1022 1.62388 19.9642 1.48612 19.8031 1.4402L14.6728 0.0855791C14.5117 0.0396598 14.3277 0.0855791 14.1896 0.223337L10.7617 3.64433L17.9396 10.8077L21.3675 7.38675C21.5056 7.24899 21.5516 7.06532 21.5056 6.9046Z" fill="#85C671"></path><path fill-rule="evenodd" clip-rule="evenodd" d="M0.0172546 14.7117L1.37462 19.8317C1.42063 19.9925 1.55867 20.1302 1.71971 20.1761L6.85008 21.5308C7.01112 21.5767 7.19517 21.5308 7.33321 21.393L10.7611 17.972L3.58321 10.8086L0.155291 14.2296C0.0172546 14.3673 -0.0287577 14.5281 0.0172546 14.7117Z" fill="#F6CE1E"></path><path fill-rule="evenodd" clip-rule="evenodd" d="M6.85008 0.0855791L1.71971 1.4402C1.55867 1.48612 1.42063 1.62388 1.37462 1.78459L0.0172546 6.9046C-0.0287577 7.06532 0.0172546 7.24899 0.155291 7.38675L3.58321 10.8077L10.7611 3.64433L7.33321 0.223337C7.21818 0.0855791 7.03413 0.0396598 6.85008 0.0855791Z" fill="#C5D433"></path><path fill-rule="evenodd" clip-rule="evenodd" d="M21.345 14.1837L17.9631 10.8086L10.7852 17.972L14.1441 21.3471C14.3051 21.5078 14.5352 21.5537 14.7422 21.5078L19.7345 20.1991C19.9416 20.1532 20.1256 19.9695 20.1717 19.7629L21.483 14.7806C21.552 14.574 21.483 14.3444 21.345 14.1837Z" fill="#B982B8"></path><path fill-rule="evenodd" clip-rule="evenodd" d="M3.59375 10.7923L10.7678 3.63281L17.9581 10.8086L10.7841 17.9681L3.59375 10.7923Z" fill="#762A7D"></path></svg>
